<svg width="76" height="20" viewBox="0 0 76 20" fill="none" xmlns="http://www.w3.org/2000/svg">
<path fill-rule="evenodd" clip-rule="evenodd" d="M24.4941 15.4631L25.4301 13.2881C26.4411 14.0441 27.7881 14.4371 29.1171 14.4371C30.0981 14.4371 30.7191 14.0591 30.7191 13.4861C30.7041 11.8841 24.8421 13.1381 24.7971 9.1211C24.7821 7.0811 26.5941 5.5091 29.1621 5.5091C30.6891 5.5091 32.2131 5.8871 33.3021 6.7481L32.4261 8.9681C31.4301 8.3321 30.1911 7.8791 29.0121 7.8791C28.2111 7.8791 27.6831 8.2571 27.6831 8.7401C27.6981 10.3121 33.6051 9.4511 33.6651 13.2881C33.6651 15.3731 31.8981 16.8401 29.3601 16.8401C27.5001 16.8371 25.7931 16.3991 24.4941 15.4631V15.4631ZM60.4371 12.5021C59.9691 13.3181 59.0931 13.8761 58.0791 13.8761C56.5821 13.8761 55.3761 12.6671 55.3761 11.1731C55.3761 9.67909 56.5851 8.4701 58.0791 8.4701C59.0901 8.4701 59.9691 9.0281 60.4371 9.84409L63.0201 8.4101C62.0541 6.6881 60.1941 5.5091 58.0791 5.5091C54.9501 5.5091 52.4121 8.0471 52.4121 11.1761C52.4121 14.3051 54.9501 16.8431 58.0791 16.8431C60.2091 16.8431 62.0541 15.6791 63.0201 13.9421L60.4371 12.5021ZM34.9641 0.808105H38.1981V16.6271H34.9641V0.808105ZM64.2891 0.808105V16.6271H67.5231V11.8811L71.3601 16.6271H75.5001L70.6191 10.9901L75.1371 5.7311H71.1771L67.5201 10.0961V0.808105H64.2891Z" fill="black"/>
<path d="M47.8067 12.5321C47.3387 13.3031 46.3727 13.8761 45.2837 13.8761C43.7867 13.8761 42.5807 12.6671 42.5807 11.1731C42.5807 9.6791 43.7897 8.4701 45.2837 8.4701C46.3727 8.4701 47.3387 9.0731 47.8067 9.8591V12.5321ZM47.8067 5.7341V7.0181C47.2787 6.1271 45.9647 5.5061 44.5877 5.5061C41.7467 5.5061 39.5117 8.0141 39.5117 11.1581C39.5117 14.3021 41.7467 16.8401 44.5877 16.8401C45.9617 16.8401 47.2757 16.2221 47.8067 15.3281V16.6121H51.0407V5.7341H47.8067Z" fill="black"/>
<path fill-rule="evenodd" clip-rule="evenodd" d="M4.50465 12.5172C4.50465 13.6212 3.61365 14.5122 2.50965 14.5122C1.40565 14.5122 0.514648 13.6182 0.514648 12.5172C0.514648 11.4162 1.40565 10.5222 2.50965 10.5222H4.50465V12.5172ZM5.50065 12.5172C5.50065 11.4132 6.39165 10.5222 7.49565 10.5222C8.59965 10.5222 9.49065 11.4132 9.49065 12.5172V17.5032C9.49065 18.6072 8.59965 19.4982 7.49565 19.4982C6.39165 19.4982 5.50065 18.6072 5.50065 17.5032V12.5172Z" fill="#E01E5A"/>
<path fill-rule="evenodd" clip-rule="evenodd" d="M7.496 4.51015C6.392 4.51015 5.501 3.61915 5.501 2.51515C5.501 1.41114 6.392 0.520142 7.496 0.520142C8.6 0.520142 9.491 1.41114 9.491 2.51515V4.51015H7.496ZM7.496 5.52116C8.6 5.52116 9.491 6.41216 9.491 7.51616C9.491 8.62016 8.6 9.51117 7.496 9.51117H2.495C1.391 9.51117 0.5 8.61716 0.5 7.51616C0.5 6.41516 1.391 5.52116 2.495 5.52116H7.496Z" fill="#36C5F0"/>
<path fill-rule="evenodd" clip-rule="evenodd" d="M15.4879 7.51628C15.4879 6.41228 16.3789 5.52128 17.4829 5.52128C18.5869 5.52128 19.4779 6.41228 19.4779 7.51628C19.4779 8.62029 18.5869 9.51129 17.4829 9.51129H15.4879V7.51628ZM14.4919 7.51628C14.4919 8.62029 13.6009 9.51129 12.4969 9.51129C11.393 9.51129 10.502 8.62029 10.502 7.51628V2.51527C10.502 1.41127 11.393 0.520264 12.4969 0.520264C13.6009 0.520264 14.4919 1.41127 14.4919 2.51527V7.51628Z" fill="#2EB67D"/>
<path fill-rule="evenodd" clip-rule="evenodd" d="M12.4969 15.5082C13.6009 15.5082 14.4919 16.3992 14.4919 17.5032C14.4919 18.6072 13.6009 19.4982 12.4969 19.4982C11.393 19.4982 10.502 18.6072 10.502 17.5032V15.5082H12.4969ZM12.4969 14.5122C11.393 14.5122 10.502 13.6212 10.502 12.5172C10.502 11.4132 11.393 10.5222 12.4969 10.5222H17.4979C18.6019 10.5222 19.4929 11.4132 19.4929 12.5172C19.4929 13.6212 18.6019 14.5122 17.4979 14.5122H12.4969Z" fill="#ECB22E"/>
</svg>
