<svg width="76" height="16" viewBox="0 0 76 16" fill="none" xmlns="http://www.w3.org/2000/svg">
<path d="M75.5 7.23745V5.91845H73.8621V3.86792L73.8069 3.88489L72.2685 4.35561L72.2382 4.36483V5.91853H69.8099V5.05298C69.8099 4.64996 69.9 4.34154 70.0776 4.13585C70.254 3.93263 70.5063 3.82932 70.828 3.82932C71.0593 3.82932 71.2988 3.88381 71.5398 3.99126L71.6003 4.01825V2.62916L71.5718 2.61872C71.347 2.53789 71.0412 2.49719 70.6621 2.49719C70.1844 2.49719 69.7503 2.60116 69.3717 2.80721C68.9929 3.01355 68.695 3.30811 68.4862 3.68262C68.2782 4.0567 68.1727 4.48874 68.1727 4.96686V5.91845H67.0321V7.23745H68.1727V12.7941H69.8099V7.23745H72.2382V10.7686C72.2382 12.2229 72.9241 12.9599 74.277 12.9599C74.4993 12.9599 74.7333 12.9339 74.9722 12.8829C75.2154 12.8305 75.381 12.7782 75.4785 12.7223L75.5001 12.7095V11.3784L75.4335 11.4224C75.3446 11.4816 75.234 11.53 75.1042 11.566C74.9739 11.6026 74.8651 11.621 74.7808 11.621C74.4639 11.621 74.2294 11.5356 74.0839 11.367C73.9368 11.197 73.8622 10.8996 73.8622 10.4836V7.23745H75.5ZM63.3758 11.6212C62.7816 11.6212 62.313 11.4241 61.9828 11.036C61.6506 10.6459 61.4823 10.0897 61.4823 9.38303C61.4823 8.65396 61.6506 8.08333 61.983 7.68633C62.3134 7.29194 62.7774 7.09177 63.3625 7.09177C63.9302 7.09177 64.3821 7.28294 64.7058 7.66028C65.0312 8.03959 65.1963 8.60564 65.1963 9.3432C65.1963 10.0898 65.041 10.6634 64.7349 11.047C64.4308 11.4278 63.9736 11.6212 63.3758 11.6212V11.6212ZM63.4486 5.75282C62.3148 5.75282 61.4143 6.08503 60.7722 6.74025C60.1306 7.39554 59.8053 8.30237 59.8053 9.43578C59.8053 10.5123 60.1228 11.3782 60.7492 12.0091C61.3757 12.6401 62.2281 12.9598 63.2828 12.9598C64.3818 12.9598 65.2644 12.6229 65.9062 11.9586C66.5479 11.2951 66.873 10.3968 66.873 9.28987C66.873 8.19651 66.568 7.32415 65.966 6.69752C65.3637 6.0706 64.5166 5.75282 63.4486 5.75282V5.75282ZM57.1655 5.75282C56.3943 5.75282 55.7563 5.95009 55.269 6.33904C54.7787 6.73031 54.53 7.24347 54.53 7.86444C54.53 8.18723 54.5837 8.47395 54.6893 8.71715C54.7956 8.96114 54.9601 9.17597 55.1786 9.35626C55.3954 9.5351 55.7302 9.72243 56.1738 9.91302C56.5467 10.0665 56.8248 10.1963 57.0015 10.2986C57.1741 10.3988 57.2967 10.4996 57.3659 10.5978C57.4331 10.6938 57.4672 10.8253 57.4672 10.9875C57.4672 11.4495 57.1213 11.6742 56.4095 11.6742C56.1455 11.6742 55.8443 11.6191 55.5144 11.5104C55.1869 11.4034 54.8777 11.2466 54.5978 11.0456L54.5298 10.9969V12.5732L54.5548 12.5848C54.7864 12.6918 55.0785 12.7819 55.4228 12.8529C55.7664 12.9239 56.0786 12.9601 56.3498 12.9601C57.1867 12.9601 57.8606 12.7619 58.3524 12.3706C58.8472 11.9766 59.098 11.4513 59.098 10.8089C59.098 10.3454 58.963 9.94799 58.6969 9.62746C58.4326 9.30954 57.9739 9.01766 57.334 8.75966C56.8243 8.55507 56.4977 8.38522 56.363 8.25485C56.2331 8.1289 56.1672 7.95078 56.1672 7.72522C56.1672 7.52526 56.2486 7.36507 56.4157 7.23535C56.5841 7.10497 56.8185 7.03866 57.1125 7.03866C57.3852 7.03866 57.6644 7.08175 57.9419 7.1662C58.2193 7.25065 58.4629 7.36376 58.6663 7.50212L58.7332 7.54783V6.05253L58.7075 6.0415C58.5199 5.96104 58.2725 5.89219 57.972 5.83633C57.6728 5.78082 57.4015 5.75282 57.1655 5.75282V5.75282ZM50.2617 11.6212C49.6676 11.6212 49.1989 11.4241 48.8688 11.036C48.5365 10.6459 48.3685 10.0898 48.3685 9.38303C48.3685 8.65396 48.5367 8.08333 48.8691 7.68633C49.1992 7.29194 49.6632 7.09177 50.2486 7.09177C50.8161 7.09177 51.268 7.28294 51.5918 7.66028C51.9172 8.03959 52.0822 8.60564 52.0822 9.3432C52.0822 10.0898 51.9269 10.6634 51.6207 11.047C51.3167 11.4278 50.8597 11.6212 50.2617 11.6212V11.6212ZM50.3347 5.75282C49.2006 5.75282 48.3 6.08503 47.6583 6.74025C47.0167 7.39554 46.6911 8.30237 46.6911 9.43578C46.6911 10.5127 47.0089 11.3782 47.6353 12.0091C48.2617 12.6401 49.1141 12.9598 50.1688 12.9598C51.2677 12.9598 52.1505 12.6229 52.7923 11.9586C53.4339 11.2951 53.7591 10.3968 53.7591 9.28987C53.7591 8.19651 53.454 7.32415 52.8519 6.69752C52.2495 6.0706 51.4025 5.75282 50.3347 5.75282V5.75282ZM44.2058 7.10918V5.91845H42.5885V12.794H44.2058V9.27689C44.2058 8.67884 44.3414 8.18752 44.609 7.81642C44.8731 7.44974 45.2252 7.26393 45.655 7.26393C45.8006 7.26393 45.9642 7.28795 46.1413 7.33547C46.3166 7.3827 46.4435 7.43399 46.5184 7.48797L46.5864 7.53724V5.9067L46.5602 5.89546C46.4096 5.83147 46.1965 5.79918 45.9269 5.79918C45.5204 5.79918 45.1567 5.92977 44.8452 6.1869C44.5718 6.4129 44.3741 6.72277 44.223 7.10918H44.2058ZM39.6922 5.75282C38.9502 5.75282 38.2884 5.91192 37.7254 6.22557C37.1613 6.53994 36.7251 6.98874 36.4283 7.55944C36.1328 8.12875 35.9827 8.79376 35.9827 9.53539C35.9827 10.185 36.1282 10.7812 36.4157 11.3066C36.7034 11.8329 37.1106 12.2446 37.626 12.5302C38.1406 12.8154 38.7355 12.96 39.3941 12.96C40.1627 12.96 40.819 12.8063 41.3451 12.5033L41.3664 12.4911V11.0094L41.2984 11.059C41.06 11.2326 40.7937 11.3712 40.5071 11.471C40.2213 11.5708 39.9607 11.6212 39.7321 11.6212C39.0975 11.6212 38.5881 11.4226 38.2183 11.0311C37.8477 10.6391 37.6598 10.0887 37.6598 9.39602C37.6598 8.69901 37.8557 8.13441 38.2419 7.71782C38.627 7.30246 39.1374 7.09177 39.7588 7.09177C40.2904 7.09177 40.8084 7.27177 41.2985 7.62727L41.3664 7.67653V6.11529L41.3444 6.10295C41.16 5.99971 40.9085 5.91446 40.5962 5.84982C40.2853 5.78532 39.9811 5.75282 39.6922 5.75282V5.75282ZM34.8689 5.91853H33.2515V12.794H34.8689V5.91853V5.91853ZM34.0767 2.98953C33.8105 2.98953 33.5784 3.08015 33.3876 3.25971C33.1961 3.43979 33.099 3.66651 33.099 3.93408C33.099 4.19745 33.1949 4.42004 33.3847 4.59532C33.5732 4.7701 33.806 4.85869 34.0768 4.85869C34.3475 4.85869 34.5813 4.7701 34.772 4.59561C34.964 4.42004 35.0613 4.19752 35.0613 3.93408C35.0613 3.67587 34.9666 3.45147 34.7799 3.26697C34.5934 3.08283 34.3567 2.98953 34.0767 2.98953ZM30.0414 5.41124V12.794H31.692V3.2H29.4075L26.5039 10.3261L23.686 3.2H21.3086V12.7939H22.8597V5.41052H22.9129L25.8885 12.794H27.059L29.9882 5.41124H30.0414V5.41124Z" fill="#706D6E"/>
<path d="M8.10835 7.60251H0.5V-0.00585938H8.10835V7.60251Z" fill="#F1511B"/>
<path d="M16.5086 7.60251H8.90039V-0.00585938H16.5086V7.60251Z" fill="#80CC28"/>
<path d="M8.10813 16.006H0.5V8.39771H8.10813V16.006Z" fill="#00ADEF"/>
<path d="M16.5086 16.006H8.90039V8.39771H16.5086V16.006Z" fill="#FBBC09"/>
</svg>
