<svg width="76" height="26" viewBox="0 0 76 26" fill="none" xmlns="http://www.w3.org/2000/svg">
<path d="M9.73694 0.762207H10.4039C12.7193 0.812543 14.997 1.74375 16.6329 3.39225C16.0289 4.00886 15.4123 4.6003 14.8208 5.21692C13.9022 4.38638 12.7948 3.7446 11.5868 3.51809C9.79986 3.14057 7.87453 3.48033 6.37704 4.49963C4.74114 5.56927 3.63376 7.38135 3.39466 9.31927C3.1304 11.232 3.67151 13.2455 4.91731 14.7304C6.11278 16.1775 7.93745 17.0836 9.82503 17.1465C11.5868 17.2471 13.424 16.706 14.7076 15.4728C15.7143 14.6045 16.1799 13.2832 16.3309 11.9997C14.242 11.9997 12.1531 12.0122 10.0641 11.9997V9.40736H18.8603C19.3133 12.1884 18.6589 15.3218 16.5448 17.3101C15.1354 18.7195 13.1849 19.55 11.1967 19.7136C9.27134 19.9024 7.28308 19.5374 5.57168 18.6062C3.5205 17.5114 1.88459 15.6616 1.07923 13.4846C0.324192 11.4837 0.311608 9.2186 1.01631 7.20518C1.65808 5.36792 2.89131 3.7446 4.47688 2.61204C5.99953 1.49207 7.84936 0.875462 9.73694 0.762207Z" fill="#3780FF"/>
<path d="M60.1982 1.4165H62.8912V19.3863C61.9977 19.3863 61.0917 19.3989 60.1982 19.3737C60.2108 13.3964 60.1982 7.40643 60.1982 1.4165V1.4165Z" fill="#38B137"/>
<path d="M24.85 7.64556C26.5111 7.33097 28.3106 7.68332 29.6822 8.67744C30.9281 9.55832 31.7963 10.9425 32.0606 12.4526C32.4004 14.2018 31.9725 16.1145 30.84 17.4988C29.6193 19.0466 27.6185 19.8771 25.668 19.7513C23.8811 19.6506 22.1445 18.7572 21.0874 17.2974C19.892 15.6867 19.6025 13.4719 20.2569 11.5843C20.9113 9.55832 22.7611 8.0105 24.85 7.64556V7.64556ZM25.2275 10.0365C24.548 10.2127 23.9188 10.6028 23.4658 11.1565C22.2452 12.6162 22.3207 14.9946 23.6671 16.3536C24.4348 17.1338 25.5925 17.4988 26.6621 17.2848C27.6562 17.1087 28.5245 16.4417 29.0027 15.5608C29.8333 14.0634 29.5942 11.9996 28.3232 10.8293C27.5052 10.0743 26.3098 9.75966 25.2275 10.0365Z" fill="#FA3913"/>
<path d="M38.1888 7.64564C40.089 7.2807 42.1653 7.80923 43.5873 9.14312C45.9027 11.2195 46.1544 15.1079 44.1788 17.4988C42.9833 19.0089 41.0454 19.8394 39.1326 19.7513C37.308 19.701 35.5085 18.795 34.4263 17.2975C33.2056 15.649 32.9414 13.3839 33.6335 11.4586C34.3256 9.49547 36.1377 7.99798 38.1888 7.64564V7.64564ZM38.5663 10.0366C37.8868 10.2127 37.2576 10.6028 36.8046 11.144C35.5966 12.5785 35.6469 14.9191 36.943 16.2908C37.7106 17.1087 38.9061 17.5114 40.0135 17.2849C40.995 17.0961 41.8759 16.4418 42.3541 15.5609C43.172 14.0508 42.933 11.9871 41.6494 10.8168C40.8314 10.0617 39.636 9.75973 38.5663 10.0366Z" fill="#FCBD06"/>
<path d="M49.5022 8.37528C50.9494 7.46924 52.8747 7.21756 54.4351 7.99777C54.9259 8.21169 55.3286 8.57662 55.7187 8.94156C55.7313 8.60179 55.7187 8.24944 55.7313 7.89709C56.5744 7.90968 57.4175 7.89709 58.2732 7.90968V19.0087C58.2606 20.6823 57.8328 22.4566 56.6247 23.6773C55.3034 25.0237 53.2774 25.439 51.4528 25.1622C49.5022 24.8727 47.8034 23.4508 47.0484 21.6513C47.8034 21.2863 48.5962 20.9969 49.3764 20.6571C49.8168 21.689 50.7103 22.5699 51.8303 22.7712C52.9502 22.9726 54.2464 22.6957 54.9762 21.7645C55.7564 20.8081 55.7564 19.4994 55.7187 18.3291C55.1398 18.8954 54.4729 19.3988 53.6675 19.5875C51.9184 20.0783 49.993 19.4743 48.6465 18.2914C47.2875 17.1085 46.4821 15.2838 46.5576 13.4717C46.5954 11.4206 47.7531 9.44491 49.5022 8.37528V8.37528ZM52.1071 9.98602C51.3395 10.1119 50.6222 10.5397 50.1314 11.1311C48.9486 12.5405 48.9486 14.7931 50.144 16.1773C50.8236 16.9952 51.9184 17.4483 52.9754 17.335C53.9695 17.2343 54.8882 16.6051 55.3789 15.7368C56.2095 14.2645 56.071 12.2637 54.9511 10.9801C54.259 10.1874 53.1516 9.79726 52.1071 9.98602V9.98602Z" fill="#3780FF"/>
<path d="M66.1248 9.01723C67.6348 7.60783 69.9629 7.12964 71.9008 7.87209C73.7381 8.56421 74.9084 10.3134 75.4998 12.1129C72.7691 13.2454 70.051 14.3654 67.3202 15.4979C67.6978 16.2152 68.2766 16.8696 69.0568 17.1338C70.1516 17.5239 71.4604 17.3855 72.379 16.6557C72.7439 16.3788 73.0333 16.0139 73.3102 15.6615C74.0023 16.1271 74.6944 16.5801 75.3865 17.0458C74.405 18.5181 72.7565 19.55 70.9822 19.7135C69.0191 19.9526 66.9301 19.1976 65.6592 17.6624C63.5702 15.2463 63.7716 11.1942 66.1248 9.01723V9.01723ZM67.4713 11.3452C67.0434 11.9619 66.8672 12.7169 66.8798 13.4593C68.7045 12.7043 70.5291 11.9493 72.3538 11.1817C72.0518 10.477 71.3219 10.0491 70.5795 9.93585C69.384 9.72193 68.1382 10.3637 67.4713 11.3452V11.3452Z" fill="#FA3913"/>
</svg>
