<svg width="76" height="16" viewBox="0 0 76 16" fill="none" xmlns="http://www.w3.org/2000/svg">
<path d="M12.4396 0.612549H0.537109V3.50755L1.62461 7.81255L5.03711 8.00755L7.93211 5.11255L13.6621 3.88255L12.4396 0.612549Z" fill="#00C425"/>
<path d="M0.537109 3.50757V15.4101H3.43211L8.27711 15.0051L7.93961 10.9026L0.537109 3.50757V3.50757Z" fill="#3AF23A"/>
<path d="M3.42969 15.4098H15.3322V12.5148L14.0647 8.65982L10.8247 8.00732L3.42969 15.4098Z" fill="#006446"/>
<path d="M72.2597 6.48515L69.6422 8.86271L72.2597 11.2553V12.6353H72.1772L68.2922 9.11021V12.4628H67.1672V2.32256H68.2922V8.6602L72.1547 5.14263H72.2597V6.48515V6.48515ZM21.4922 12.4628H27.2372V11.3303H22.6622V2.65257H21.4922V12.4628ZM31.2122 5.15013C29.4497 5.15013 27.8447 6.58266 27.8447 8.89271C27.8447 11.1353 29.3147 12.6203 31.4297 12.6203C32.3747 12.6203 33.2447 12.3803 34.0322 11.8103V10.6027C33.2072 11.2928 32.2922 11.5853 31.4672 11.5853C30.1997 11.5853 29.0747 10.7978 28.9697 9.32772H34.3247C34.3397 9.18522 34.3697 8.87021 34.3697 8.75021C34.3697 6.38765 32.9447 5.15013 31.2122 5.15013V5.15013ZM31.2197 6.17765C32.2172 6.17765 33.2297 6.82266 33.2672 8.3452H28.9622C29.0297 7.16767 29.9372 6.17765 31.2197 6.17765ZM50.1122 5.15013C49.1597 5.15013 48.4697 5.65264 48.0572 6.39515C47.7122 5.60014 47.0747 5.15013 46.0547 5.15013C45.1622 5.15013 44.5022 5.66764 44.1422 6.35765H44.1122L43.9772 5.29263H43.0847V12.4553H44.2247V7.93269C44.2247 7.05517 44.7722 6.23765 45.7622 6.23765C46.7297 6.23765 47.1572 6.80766 47.1572 7.84269V12.4628H48.2972V7.85769C48.2972 7.02517 48.8522 6.23765 49.8272 6.23765C50.8097 6.23765 51.2297 6.80766 51.2297 7.84269V12.4628H52.3697V7.68518C52.3772 6.18515 51.6797 5.15013 50.1122 5.15013V5.15013ZM56.9897 5.15013C55.2797 5.15013 53.6822 6.59766 53.6822 8.89271C53.6822 11.1578 55.2722 12.6203 56.9897 12.6203C58.0622 12.6203 59.0747 12.1178 59.6147 11.1203H59.6297L59.7647 12.4628H60.6947V5.30013H59.7647L59.6297 6.64266H59.6147C59.0747 5.66014 58.0622 5.15013 56.9897 5.15013ZM57.1997 6.21515C58.5497 6.21515 59.5772 7.30267 59.5772 8.88521C59.5772 10.4602 58.5572 11.5553 57.1997 11.5553C55.8722 11.5553 54.8222 10.4827 54.8222 8.90021C54.8222 7.28767 55.8722 6.21515 57.1997 6.21515V6.21515ZM65.5547 5.21763C64.9322 5.21763 63.9872 5.51014 63.4997 6.44016H63.4847L63.3647 5.30013H62.4497V12.4628H63.5897V8.3377C63.5897 6.68016 64.9322 6.16265 66.0347 6.38765V5.25513C65.8847 5.23263 65.7422 5.21763 65.5547 5.21763V5.21763ZM41.6222 5.13513H41.5322L38.5397 8.12019L35.5547 5.13513H35.4647V6.58266L37.7672 8.88521L35.4647 11.1728V12.6353H35.5547L38.5247 9.63522L41.5322 12.6353H41.6222V11.1653L39.2972 8.86271L41.6222 6.52266V5.13513V5.13513ZM72.2597 2.48007V2.32256H73.5047V2.48007H72.9797V3.72509H72.7922V2.47257C72.7847 2.48007 72.2597 2.48007 72.2597 2.48007V2.48007ZM74.1347 2.32256L74.6747 3.50759L75.2147 2.32256H75.4697V3.72509H75.2897V2.54757L74.7497 3.72509H74.5922L74.0597 2.54757V3.72509H73.8797V2.31506H74.1347V2.32256Z" fill="#32323C"/>
<path d="M15.3364 12.5151V0.612549H12.4414L7.94141 5.11255L15.3364 12.5151Z" fill="#008A44"/>
</svg>
