<svg width="18" height="19" viewBox="0 0 18 19" fill="none" xmlns="http://www.w3.org/2000/svg">
<path d="M11.25 17.5625H6.75C2.6775 17.5625 0.9375 15.8225 0.9375 11.75V7.25C0.9375 3.1775 2.6775 1.4375 6.75 1.4375H11.25C15.3225 1.4375 17.0625 3.1775 17.0625 7.25V11.75C17.0625 15.8225 15.3225 17.5625 11.25 17.5625ZM6.75 2.5625C3.2925 2.5625 2.0625 3.7925 2.0625 7.25V11.75C2.0625 15.2075 3.2925 16.4375 6.75 16.4375H11.25C14.7075 16.4375 15.9375 15.2075 15.9375 11.75V7.25C15.9375 3.7925 14.7075 2.5625 11.25 2.5625H6.75Z" fill="#FAAD29"/>
<path d="M7.93523 12.1864C7.7861 12.1863 7.64312 12.1269 7.53773 12.0214L5.41523 9.89892C5.31062 9.79306 5.25195 9.65024 5.25195 9.50142C5.25195 9.35259 5.31062 9.20977 5.41523 9.10392C5.63273 8.88642 5.99273 8.88642 6.21023 9.10392L7.93523 10.8289L11.7902 6.97392C12.0077 6.75642 12.3677 6.75642 12.5852 6.97392C12.8027 7.19142 12.8027 7.55142 12.5852 7.76892L8.33273 12.0214C8.22734 12.1269 8.08436 12.1863 7.93523 12.1864Z" fill="#FAAD29"/>
</svg>
