<svg width="76" height="16" viewBox="0 0 76 16" fill="none" xmlns="http://www.w3.org/2000/svg">
<path d="M31.9344 3.56521C30.5802 3.56521 29.04 4.19294 28.0989 5.44976L28.0995 5.44733L28.0989 5.44794L28.0995 3.76248H24.8695V15.5251H28.0989V8.83203C28.0989 7.62749 29.0329 6.34688 30.7623 6.34688C32.0986 6.34688 33.4817 7.27658 33.4817 8.83203V15.5251H36.7117V8.23355C36.7117 5.52809 34.7761 3.56521 31.9344 3.56521V3.56521ZM59.6682 3.76309L56.7482 11.7754L53.8282 3.76309H50.1385L54.9782 15.5219H58.5176L63.3573 3.76309H59.6682ZM15.2268 7.30658C15.7768 6.56794 16.653 6.1343 17.7112 6.1343C18.8752 6.1343 19.7582 6.799 20.2147 7.78021L14.5717 10.1214C14.4176 8.91991 14.725 7.98022 15.2268 7.30658V7.30658ZM21.4321 11.9087C20.0727 12.9148 19.2961 13.1548 18.0564 13.1548C16.9408 13.1548 16.0673 12.8084 15.4515 12.201L23.7091 8.77537C23.5288 7.49885 23.0442 6.3584 22.2988 5.49127C21.2138 4.23127 19.6079 3.5646 17.6526 3.5646C14.1011 3.5646 11.423 6.18461 11.423 9.64522C11.423 13.1955 14.1074 15.7251 18.0086 15.7251C20.1944 15.7251 22.4292 14.6892 23.4747 13.4789L21.4321 11.9087ZM11.1152 12.5593H3.77409V0.244751H0.5V15.5251H11.1152V12.5593ZM69.1571 6.33249C67.3533 6.33249 66.0435 7.69946 66.0435 9.64401C66.0435 11.5007 67.4309 12.9555 69.2005 12.9555C71.0049 12.9555 72.3139 11.551 72.3139 9.64401C72.3139 7.78734 70.9271 6.33249 69.1571 6.33249V6.33249ZM69.1571 15.7234C65.6247 15.7234 62.8568 13.0917 62.8568 9.64401C62.8568 6.23491 65.6438 3.5646 69.2005 3.5646C72.7329 3.5646 75.5 6.19612 75.5 9.64401C75.5 13.0523 72.7136 15.7233 69.1571 15.7233V15.7234ZM44.2891 6.33249C42.4853 6.33249 41.1762 7.69946 41.1762 9.64401C41.1762 11.5007 42.563 12.9555 44.333 12.9555C46.1368 12.9555 47.4459 11.551 47.4459 9.64401C47.4459 7.78734 46.0591 6.33249 44.2891 6.33249ZM44.2891 15.7234C40.7567 15.7234 37.9895 13.0917 37.9895 9.64401C37.9895 6.23491 40.7758 3.5646 44.333 3.5646C47.8649 3.5646 50.6326 6.19612 50.6326 9.64401C50.6326 13.0523 47.8458 15.7233 44.2891 15.7233" fill="#E60012"/>
</svg>
