<svg width="150" height="75" viewBox="0 0 150 75" fill="none" xmlns="http://www.w3.org/2000/svg">
<g filter="url(#filter0_dd_796_105912)">
<g clip-path="url(#clip0_796_105912)">
<path d="M37.8096 21.0029H38.687C41.733 21.0691 44.7294 22.2944 46.8815 24.4634C46.0869 25.2747 45.2757 26.0529 44.4976 26.8643C43.2891 25.7715 41.8323 24.927 40.2432 24.629C37.8924 24.1323 35.3596 24.5793 33.3896 25.9205C31.2375 27.3279 29.7807 29.7122 29.4662 32.262C29.1186 34.7787 29.8304 37.428 31.4693 39.3818C33.042 41.2859 35.4424 42.4781 37.9255 42.5608C40.2432 42.6932 42.6601 41.9812 44.3487 40.3586C45.673 39.2162 46.2855 37.4776 46.4842 35.7888C43.7362 35.7888 40.9882 35.8053 38.24 35.7888V32.3779H49.8117C50.4076 36.0371 49.5467 40.16 46.7656 42.7761C44.9115 44.6305 42.3455 45.7233 39.73 45.9386C37.1971 46.187 34.5815 45.7067 32.3301 44.4815C29.6317 43.041 27.4797 40.6071 26.4202 37.7426C25.4269 35.1099 25.4104 32.1296 26.3374 29.4804C27.1817 27.0629 28.804 24.927 30.8899 23.4368C32.893 21.9632 35.3265 21.1519 37.8096 21.0029Z" fill="#3780FF"/>
<path d="M104.191 21.8638H107.735V45.5079C106.559 45.5079 105.367 45.5245 104.191 45.4913C104.208 37.6266 104.191 29.7452 104.191 21.8638Z" fill="#38B137"/>
<path d="M57.6913 30.0598C59.8765 29.6459 62.2438 30.1095 64.0482 31.4175C65.6872 32.5765 66.8293 34.3978 67.177 36.3847C67.6241 38.6863 67.0611 41.203 65.5713 43.0244C63.9654 45.0609 61.3333 46.1537 58.7674 45.9881C56.4167 45.8557 54.1321 44.6801 52.7415 42.7594C51.1689 40.6401 50.7881 37.7259 51.649 35.2423C52.5098 32.5765 54.9433 30.54 57.6913 30.0598ZM58.1879 33.2057C57.294 33.4376 56.4663 33.9508 55.8703 34.6794C54.2646 36.6 54.3639 39.7294 56.1352 41.5176C57.1451 42.5441 58.6681 43.0244 60.0752 42.7428C61.3829 42.5111 62.5252 41.6335 63.1543 40.4744C64.247 38.5042 63.9324 35.7887 62.2604 34.2489C61.1843 33.2555 59.6117 32.8415 58.1879 33.2057Z" fill="#FA3913"/>
<path d="M75.2388 30.0599C77.7385 29.5797 80.4699 30.2751 82.3406 32.0302C85.3866 34.7623 85.7177 39.8785 83.1188 43.0244C81.546 45.0113 78.9967 46.1041 76.4804 45.9882C74.08 45.922 71.7128 44.7299 70.2891 42.7595C68.6832 40.5905 68.3357 37.6101 69.2461 35.0769C70.1566 32.4938 72.5405 30.5235 75.2388 30.0599ZM75.7354 33.2058C74.8415 33.4376 74.0137 33.9508 73.4178 34.6629C71.8287 36.5504 71.8948 39.6301 73.5999 41.4349C74.6097 42.5111 76.1824 43.041 77.6392 42.7429C78.9304 42.4945 80.0892 41.6336 80.7183 40.4746C81.7943 38.4876 81.4799 35.7723 79.7913 34.2324C78.7152 33.2389 77.1426 32.8416 75.7354 33.2058Z" fill="#FCBD06"/>
<path d="M90.1223 31.0199C92.0261 29.8278 94.5589 29.4966 96.6117 30.5232C97.2573 30.8047 97.7871 31.2848 98.3003 31.765C98.3169 31.318 98.3003 30.8544 98.3169 30.3907C99.426 30.4073 100.535 30.3907 101.661 30.4073V45.0111C101.644 47.2131 101.081 49.5477 99.4921 51.1539C97.7539 52.9254 95.0887 53.4719 92.6884 53.1076C90.1223 52.7267 87.8875 50.8558 86.8943 48.4881C87.8875 48.0079 88.9304 47.6271 89.9568 47.18C90.5362 48.5377 91.7116 49.6968 93.185 49.9616C94.6582 50.2266 96.3634 49.8623 97.3235 48.6371C98.3499 47.3787 98.3499 45.6567 98.3003 44.1169C97.5387 44.862 96.6614 45.5243 95.6019 45.7726C93.3009 46.4184 90.768 45.6237 88.9966 44.0673C87.2088 42.5108 86.1493 40.11 86.2486 37.7256C86.2983 35.0269 87.8213 32.4273 90.1223 31.0199ZM93.5491 33.1393C92.5393 33.3049 91.5957 33.8678 90.95 34.646C89.394 36.5004 89.394 39.4643 90.9666 41.2856C91.8606 42.3618 93.3009 42.9579 94.6914 42.8089C95.9992 42.6764 97.2077 41.8485 97.8533 40.706C98.9459 38.7688 98.7637 36.1362 97.2905 34.4473C96.38 33.4043 94.9232 32.8909 93.5491 33.1393Z" fill="#3780FF"/>
<path d="M111.989 31.8646C113.975 30.0101 117.038 29.381 119.587 30.3579C122.004 31.2685 123.544 33.5701 124.322 35.9378C120.729 37.4279 117.154 38.9015 113.561 40.3917C114.058 41.3355 114.819 42.1965 115.846 42.5441C117.286 43.0574 119.008 42.8753 120.216 41.9151C120.696 41.5507 121.077 41.0706 121.441 40.6069C122.352 41.2195 123.262 41.8156 124.173 42.4283C122.881 44.3655 120.713 45.7233 118.379 45.9384C115.796 46.253 113.048 45.2596 111.376 43.2396C108.628 40.0606 108.893 34.729 111.989 31.8646ZM113.76 34.9277C113.197 35.7391 112.965 36.7325 112.982 37.7093C115.382 36.7159 117.783 35.7225 120.183 34.7125C119.786 33.7853 118.825 33.2223 117.849 33.0733C116.276 32.7918 114.637 33.6362 113.76 34.9277Z" fill="#FA3913"/>
</g>
</g>
<defs>
<filter id="filter0_dd_796_105912" x="-5" y="-1" width="160" height="84.21" filterUnits="userSpaceOnUse" color-interpolation-filters="sRGB">
<feFlood flood-opacity="0" result="BackgroundImageFix"/>
<feColorMatrix in="SourceAlpha" type="matrix" values="0 0 0 0 0 0 0 0 0 0 0 0 0 0 0 0 0 0 127 0" result="hardAlpha"/>
<feMorphology radius="1" operator="erode" in="SourceAlpha" result="effect1_dropShadow_796_105912"/>
<feOffset dy="4"/>
<feGaussianBlur stdDeviation="3"/>
<feComposite in2="hardAlpha" operator="out"/>
<feColorMatrix type="matrix" values="0 0 0 0 0 0 0 0 0 0 0 0 0 0 0 0 0 0 0.1 0"/>
<feBlend mode="normal" in2="BackgroundImageFix" result="effect1_dropShadow_796_105912"/>
<feColorMatrix in="SourceAlpha" type="matrix" values="0 0 0 0 0 0 0 0 0 0 0 0 0 0 0 0 0 0 127 0" result="hardAlpha"/>
<feMorphology radius="2" operator="erode" in="SourceAlpha" result="effect2_dropShadow_796_105912"/>
<feOffset dy="2"/>
<feGaussianBlur stdDeviation="2"/>
<feComposite in2="hardAlpha" operator="out"/>
<feColorMatrix type="matrix" values="0 0 0 0 0 0 0 0 0 0 0 0 0 0 0 0 0 0 0.1 0"/>
<feBlend mode="normal" in2="effect1_dropShadow_796_105912" result="effect2_dropShadow_796_105912"/>
<feBlend mode="normal" in="SourceGraphic" in2="effect2_dropShadow_796_105912" result="shape"/>
</filter>
<clipPath id="clip0_796_105912">
<rect width="99.98" height="34.21" fill="white" transform="translate(25 20)"/>
</clipPath>
</defs>
</svg>
