<svg width="150" height="76" viewBox="0 0 150 76" fill="none" xmlns="http://www.w3.org/2000/svg">
<g filter="url(#filter0_dd_796_105942)">
<g clip-path="url(#clip0_796_105942)">
<path d="M67.011 31.6905C65.2295 31.6905 63.2033 32.5163 61.9653 34.1698L61.9661 34.1666V31.95H57.7169V47.4252H61.9653V38.6196C61.9653 37.0349 63.194 35.3501 65.4691 35.3501C67.227 35.3501 69.0465 36.5732 69.0465 38.6196V47.4252H73.2957V37.8323C73.2957 34.2729 70.7493 31.6905 67.011 31.6905ZM103.496 31.9508L99.6542 42.492L95.8129 31.9508H90.959L97.3257 47.421H101.982L108.349 31.9508H103.496ZM45.0317 36.6127C45.7552 35.6409 46.9079 35.0704 48.3 35.0704C49.8313 35.0704 50.9929 35.9449 51.5934 37.2358L44.1699 40.316C43.9672 38.7353 44.3716 37.499 45.0317 36.6127ZM53.1949 42.6674C51.4066 43.991 50.385 44.3068 48.7541 44.3068C47.2865 44.3068 46.1374 43.851 45.3273 43.0519L56.1904 38.5451C55.9532 36.8657 55.3157 35.3653 54.3351 34.2245C52.9078 32.5668 50.7951 31.6897 48.2229 31.6897C43.5508 31.6897 40.0277 35.1366 40.0277 39.6895C40.0277 44.3603 43.5591 47.6883 48.6912 47.6883C51.5667 47.6883 54.5066 46.3255 55.882 44.7332L53.1949 42.6674ZM39.6228 43.5233H29.9654V27.322H25.6582V47.4252H39.6228V43.5233ZM115.978 35.3312C113.605 35.3312 111.882 37.1296 111.882 39.6879C111.882 42.1306 113.708 44.0446 116.036 44.0446C118.409 44.0446 120.131 42.1968 120.131 39.6879C120.131 37.2452 118.307 35.3312 115.978 35.3312ZM115.978 47.6861C111.331 47.6861 107.69 44.2238 107.69 39.6879C107.69 35.2028 111.357 31.6897 116.036 31.6897C120.682 31.6897 124.323 35.1518 124.323 39.6879C124.323 44.1719 120.657 47.6861 115.978 47.6861ZM83.2639 35.3312C80.891 35.3312 79.1688 37.1296 79.1688 39.6879C79.1688 42.1306 80.9932 44.0446 83.3217 44.0446C85.6946 44.0446 87.4168 42.1968 87.4168 39.6879C87.4168 37.2452 85.5924 35.3312 83.2639 35.3312ZM83.2639 47.6861C78.617 47.6861 74.9766 44.2238 74.9766 39.6879C74.9766 35.2028 78.6421 31.6897 83.3217 31.6897C87.968 31.6897 91.609 35.1518 91.609 39.6879C91.609 44.1719 87.9429 47.6861 83.2639 47.6861Z" fill="#E60012"/>
</g>
</g>
<defs>
<filter id="filter0_dd_796_105942" x="-5" y="-1" width="160" height="85.05" filterUnits="userSpaceOnUse" color-interpolation-filters="sRGB">
<feFlood flood-opacity="0" result="BackgroundImageFix"/>
<feColorMatrix in="SourceAlpha" type="matrix" values="0 0 0 0 0 0 0 0 0 0 0 0 0 0 0 0 0 0 127 0" result="hardAlpha"/>
<feMorphology radius="1" operator="erode" in="SourceAlpha" result="effect1_dropShadow_796_105942"/>
<feOffset dy="4"/>
<feGaussianBlur stdDeviation="3"/>
<feComposite in2="hardAlpha" operator="out"/>
<feColorMatrix type="matrix" values="0 0 0 0 0 0 0 0 0 0 0 0 0 0 0 0 0 0 0.1 0"/>
<feBlend mode="normal" in2="BackgroundImageFix" result="effect1_dropShadow_796_105942"/>
<feColorMatrix in="SourceAlpha" type="matrix" values="0 0 0 0 0 0 0 0 0 0 0 0 0 0 0 0 0 0 127 0" result="hardAlpha"/>
<feMorphology radius="2" operator="erode" in="SourceAlpha" result="effect2_dropShadow_796_105942"/>
<feOffset dy="2"/>
<feGaussianBlur stdDeviation="2"/>
<feComposite in2="hardAlpha" operator="out"/>
<feColorMatrix type="matrix" values="0 0 0 0 0 0 0 0 0 0 0 0 0 0 0 0 0 0 0.1 0"/>
<feBlend mode="normal" in2="effect1_dropShadow_796_105942" result="effect2_dropShadow_796_105942"/>
<feBlend mode="normal" in="SourceGraphic" in2="effect2_dropShadow_796_105942" result="shape"/>
</filter>
<clipPath id="clip0_796_105942">
<rect width="99.98" height="21.05" fill="white" transform="translate(25 27)"/>
</clipPath>
</defs>
</svg>
