<svg width="150" height="76" viewBox="0 0 150 76" fill="none" xmlns="http://www.w3.org/2000/svg">
<g filter="url(#filter0_dd_796_105928)">
<g clip-path="url(#clip0_796_105928)">
<path d="M124.321 36.5218V34.7865H122.167V32.0887L122.094 32.1111L120.07 32.7303L120.03 32.7425V34.7866H116.836V33.6478C116.836 33.1176 116.955 32.7118 117.188 32.4412C117.42 32.1739 117.752 32.0379 118.175 32.0379C118.48 32.0379 118.795 32.1096 119.112 32.251L119.191 32.2865V30.459L119.154 30.4453C118.858 30.3389 118.456 30.2854 117.957 30.2854C117.329 30.2854 116.758 30.4221 116.26 30.6932C115.761 30.9647 115.369 31.3522 115.095 31.8449C114.821 32.3371 114.682 32.9055 114.682 33.5345V34.7865H113.182V36.5218H114.682V43.8322H116.836V36.5218H120.03V41.1674C120.03 43.0807 120.933 44.0504 122.713 44.0504C123.005 44.0504 123.313 44.0162 123.627 43.9491C123.947 43.8801 124.165 43.8113 124.293 43.7378L124.322 43.7209V41.9697L124.234 42.0276C124.117 42.1055 123.972 42.1692 123.801 42.2165C123.629 42.2647 123.486 42.2889 123.375 42.2889C122.958 42.2889 122.65 42.1765 122.459 41.9547C122.265 41.731 122.167 41.3398 122.167 40.7925V36.5218H124.321ZM108.372 42.2891C107.59 42.2891 106.974 42.0298 106.539 41.5192C106.102 41.006 105.881 40.2743 105.881 39.3445C105.881 38.3854 106.102 37.6346 106.539 37.1123C106.974 36.5935 107.585 36.3301 108.354 36.3301C109.101 36.3301 109.696 36.5816 110.121 37.0781C110.549 37.5771 110.767 38.3218 110.767 39.2921C110.767 40.2744 110.562 41.029 110.16 41.5337C109.76 42.0347 109.158 42.2891 108.372 42.2891ZM108.468 34.5686C106.976 34.5686 105.791 35.0056 104.947 35.8676C104.103 36.7298 103.675 37.9228 103.675 39.4139C103.675 40.8302 104.092 41.9694 104.916 42.7995C105.741 43.6296 106.862 44.0502 108.249 44.0502C109.695 44.0502 110.856 43.607 111.701 42.733C112.545 41.8601 112.972 40.6783 112.972 39.222C112.972 37.7835 112.571 36.6358 111.779 35.8114C110.987 34.9866 109.873 34.5686 108.468 34.5686ZM100.202 34.5686C99.1874 34.5686 98.3481 34.8281 97.7071 35.3398C97.0621 35.8546 96.7349 36.5297 96.7349 37.3467C96.7349 37.7713 96.8055 38.1485 96.9444 38.4685C97.0843 38.7895 97.3007 39.0721 97.5881 39.3093C97.8733 39.5446 98.3138 39.7911 98.8973 40.0418C99.3879 40.2437 99.7537 40.4145 99.9862 40.5491C100.213 40.6809 100.375 40.8135 100.466 40.9427C100.554 41.069 100.599 41.242 100.599 41.4554C100.599 42.0632 100.144 42.3589 99.2074 42.3589C98.8601 42.3589 98.4639 42.2864 98.0299 42.1434C97.5991 42.0026 97.1923 41.7963 96.8241 41.5319L96.7346 41.4678V43.5416L96.7675 43.5569C97.0722 43.6976 97.4564 43.8162 97.9094 43.9096C98.3614 44.003 98.7721 44.0506 99.1289 44.0506C100.23 44.0506 101.116 43.7899 101.763 43.2751C102.414 42.7567 102.744 42.0656 102.744 41.2205C102.744 40.6107 102.567 40.0878 102.217 39.6661C101.869 39.2479 101.265 38.8639 100.424 38.5244C99.7531 38.2553 99.3234 38.0318 99.1462 37.8603C98.9753 37.6946 98.8887 37.4602 98.8887 37.1635C98.8887 36.9004 98.9957 36.6897 99.2156 36.519C99.4371 36.3475 99.7455 36.2602 100.132 36.2602C100.491 36.2602 100.858 36.3169 101.223 36.428C101.588 36.5391 101.909 36.6879 102.176 36.87L102.264 36.9301V34.9629L102.23 34.9483C101.984 34.8425 101.658 34.7519 101.263 34.6784C100.869 34.6054 100.512 34.5686 100.202 34.5686ZM91.1198 42.2891C90.3383 42.2891 89.7217 42.0298 89.2874 41.5192C88.8503 41.006 88.6293 40.2744 88.6293 39.3445C88.6293 38.3854 88.8505 37.6346 89.2878 37.1123C89.7221 36.5935 90.3325 36.3301 91.1026 36.3301C91.8491 36.3301 92.4436 36.5816 92.8696 37.0781C93.2977 37.5771 93.5147 38.3218 93.5147 39.2921C93.5147 40.2744 93.3104 41.029 92.9076 41.5337C92.5077 42.0347 91.9065 42.2891 91.1198 42.2891ZM91.2159 34.5686C89.7239 34.5686 88.5391 35.0056 87.695 35.8676C86.8509 36.7298 86.4226 37.9228 86.4226 39.4139C86.4226 40.8308 86.8407 41.9694 87.6647 42.7995C88.4888 43.6296 89.6101 44.0502 90.9976 44.0502C92.4432 44.0502 93.6046 43.607 94.4489 42.733C95.2929 41.8601 95.7207 40.6783 95.7207 39.222C95.7207 37.7835 95.3194 36.6358 94.5273 35.8114C93.7348 34.9866 92.6206 34.5686 91.2159 34.5686ZM83.1531 36.353V34.7865H81.0255V43.8321H83.1531V39.2049C83.1531 38.4181 83.3315 37.7717 83.6835 37.2835C84.031 36.8011 84.4942 36.5566 85.0596 36.5566C85.2511 36.5566 85.4663 36.5882 85.6993 36.6507C85.9299 36.7129 86.0969 36.7803 86.1954 36.8514L86.2849 36.9162V34.771L86.2504 34.7562C86.0523 34.672 85.7719 34.6295 85.4173 34.6295C84.8825 34.6295 84.4041 34.8014 83.9943 35.1396C83.6346 35.437 83.3745 35.8446 83.1757 36.353H83.1531ZM77.2154 34.5686C76.2392 34.5686 75.3686 34.7779 74.628 35.1905C73.8859 35.6041 73.3121 36.1946 72.9216 36.9454C72.5329 37.6944 72.3354 38.5693 72.3354 39.545C72.3354 40.3996 72.5268 41.184 72.905 41.8752C73.2835 42.5677 73.8192 43.1093 74.4972 43.485C75.1742 43.8603 75.9568 44.0505 76.8232 44.0505C77.8343 44.0505 78.6977 43.8483 79.3898 43.4496L79.4178 43.4336V41.4842L79.3284 41.5495C79.0147 41.7779 78.6644 41.9602 78.2874 42.0915C77.9114 42.2228 77.5686 42.2891 77.2679 42.2891C76.433 42.2891 75.7629 42.0279 75.2764 41.5128C74.7889 40.9971 74.5417 40.2729 74.5417 39.3616C74.5417 38.4446 74.7994 37.7018 75.3075 37.1538C75.8141 36.6073 76.4855 36.3301 77.303 36.3301C78.0023 36.3301 78.6838 36.5669 79.3285 37.0346L79.4178 37.0994V35.0454L79.3889 35.0292C79.1463 34.8934 78.8154 34.7812 78.4046 34.6962C77.9956 34.6113 77.5954 34.5686 77.2154 34.5686ZM70.8702 34.7866H68.7424V43.8321H70.8702V34.7866ZM69.828 30.9331C69.4778 30.9331 69.1725 31.0523 68.9215 31.2886C68.6696 31.5255 68.5418 31.8237 68.5418 32.1758C68.5418 32.5223 68.668 32.8151 68.9177 33.0457C69.1657 33.2757 69.4719 33.3922 69.8282 33.3922C70.1843 33.3922 70.4918 33.2757 70.7427 33.0461C70.9953 32.8151 71.1233 32.5224 71.1233 32.1758C71.1233 31.8361 70.9987 31.5408 70.7531 31.2981C70.5078 31.0558 70.1964 30.9331 69.828 30.9331ZM64.5195 34.1192V43.8321H66.6909V31.21H63.6856L59.8658 40.5853L56.1588 31.21H53.0312V43.832H55.0718V34.1182H55.1418L59.0562 43.8321H60.5961L64.4495 34.1192H64.5195Z" fill="black"/>
<path d="M35.6672 37.0021H25.6582V26.9923H35.6672V37.0021Z" fill="#F1511B"/>
<path d="M46.7178 37.0021H36.709V26.9923H46.7178V37.0021Z" fill="#80CC28"/>
<path d="M35.6669 48.0579H25.6582V38.0482H35.6669V48.0579Z" fill="#00ADEF"/>
<path d="M46.7178 48.0579H36.709V38.0482H46.7178V48.0579Z" fill="#FBBC09"/>
</g>
</g>
<defs>
<filter id="filter0_dd_796_105928" x="-5" y="-1" width="160" height="85.05" filterUnits="userSpaceOnUse" color-interpolation-filters="sRGB">
<feFlood flood-opacity="0" result="BackgroundImageFix"/>
<feColorMatrix in="SourceAlpha" type="matrix" values="0 0 0 0 0 0 0 0 0 0 0 0 0 0 0 0 0 0 127 0" result="hardAlpha"/>
<feMorphology radius="1" operator="erode" in="SourceAlpha" result="effect1_dropShadow_796_105928"/>
<feOffset dy="4"/>
<feGaussianBlur stdDeviation="3"/>
<feComposite in2="hardAlpha" operator="out"/>
<feColorMatrix type="matrix" values="0 0 0 0 0 0 0 0 0 0 0 0 0 0 0 0 0 0 0.1 0"/>
<feBlend mode="normal" in2="BackgroundImageFix" result="effect1_dropShadow_796_105928"/>
<feColorMatrix in="SourceAlpha" type="matrix" values="0 0 0 0 0 0 0 0 0 0 0 0 0 0 0 0 0 0 127 0" result="hardAlpha"/>
<feMorphology radius="2" operator="erode" in="SourceAlpha" result="effect2_dropShadow_796_105928"/>
<feOffset dy="2"/>
<feGaussianBlur stdDeviation="2"/>
<feComposite in2="hardAlpha" operator="out"/>
<feColorMatrix type="matrix" values="0 0 0 0 0 0 0 0 0 0 0 0 0 0 0 0 0 0 0.1 0"/>
<feBlend mode="normal" in2="effect1_dropShadow_796_105928" result="effect2_dropShadow_796_105928"/>
<feBlend mode="normal" in="SourceGraphic" in2="effect2_dropShadow_796_105928" result="shape"/>
</filter>
<clipPath id="clip0_796_105928">
<rect width="99.98" height="21.05" fill="white" transform="translate(25 27)"/>
</clipPath>
</defs>
</svg>
