<svg width="60" height="60" viewBox="0 0 60 60" fill="none" xmlns="http://www.w3.org/2000/svg">
<path d="M38.6929 32.225L42.4804 53.54C42.5228 53.791 42.4876 54.049 42.3794 54.2794C42.2713 54.5098 42.0954 54.7017 41.8752 54.8295C41.655 54.9573 41.4011 55.0147 41.1474 54.9943C40.8936 54.9738 40.6522 54.8764 40.4554 54.715L31.5054 47.9975C31.0733 47.6747 30.5484 47.5003 30.0091 47.5003C29.4698 47.5003 28.9449 47.6747 28.5129 47.9975L19.5479 54.7125C19.3512 54.8736 19.11 54.9709 18.8566 54.9914C18.6032 55.0118 18.3495 54.9546 18.1295 54.8272C17.9095 54.6998 17.7335 54.5083 17.6252 54.2783C17.5168 54.0484 17.4811 53.7908 17.5229 53.54L21.3079 32.225" stroke="#39FA08" stroke-width="2" stroke-linecap="round" stroke-linejoin="round"/>
<path d="M30 35C38.2843 35 45 28.2843 45 20C45 11.7157 38.2843 5 30 5C21.7157 5 15 11.7157 15 20C15 28.2843 21.7157 35 30 35Z" stroke="#39FA08" stroke-width="2" stroke-linecap="round" stroke-linejoin="round"/>
</svg>
