<svg width="60" height="60" viewBox="0 0 60 60" fill="none" xmlns="http://www.w3.org/2000/svg">
<g clip-path="url(#clip0_828_104268)">
<path fill-rule="evenodd" clip-rule="evenodd" d="M47.7123 0.077133C48.0777 0.17788 48.4099 0.373771 48.6749 0.644819C48.94 0.915866 49.1283 1.25237 49.2208 1.61999L51.0508 8.94856L58.3794 10.7786C58.7472 10.8711 59.0838 11.0595 59.3549 11.3247C59.626 11.5899 59.8219 11.9222 59.9226 12.2878C60.0232 12.6535 60.0251 13.0392 59.9279 13.4058C59.8307 13.7723 59.638 14.1065 59.3694 14.3743L50.798 22.9457C50.5365 23.2064 50.212 23.3951 49.8561 23.4934C49.5002 23.5918 49.1248 23.5965 48.7666 23.5071L41.978 21.8143L31.8937 31.8943C31.3913 32.3967 30.7099 32.6789 29.9994 32.6789C29.2889 32.6789 28.6075 32.3967 28.1051 31.8943C27.6027 31.3919 27.3205 30.7105 27.3205 30C27.3205 29.2895 27.6027 28.6081 28.1051 28.1057L38.1851 18.0214L36.488 11.2328C36.3978 10.8739 36.4021 10.4978 36.5005 10.141C36.5989 9.78428 36.788 9.45909 37.0494 9.19713L45.6208 0.625704C45.8891 0.357807 46.2237 0.165878 46.5903 0.0695043C46.957 -0.0268692 47.3427 -0.0242368 47.708 0.077133M28.2937 5.47713C29.003 5.42939 29.6642 5.10186 30.132 4.56657C30.5998 4.03129 30.8357 3.33211 30.788 2.62285C30.7403 1.91358 30.4127 1.25233 29.8774 0.784562C29.3421 0.316793 28.643 0.0808226 27.9337 0.128562C22.229 0.525692 16.7581 2.55197 12.171 5.9667C7.58389 9.38142 4.07336 14.0411 2.05641 19.3921C0.039455 24.7432 -0.39914 30.5607 0.792724 36.1537C1.98459 41.7467 4.75681 46.88 8.78009 50.9439C12.8034 55.0077 17.9086 57.8314 23.4893 59.0793C29.07 60.3273 34.8917 59.9471 40.2627 57.984C45.6338 56.0209 50.3284 52.5573 53.789 48.0047C57.2496 43.4521 59.3307 38.0019 59.7851 32.3014C59.842 31.5933 59.6152 30.8916 59.1546 30.3507C58.6941 29.8098 58.0375 29.474 57.3294 29.4171C56.6213 29.3603 55.9196 29.5871 55.3787 30.0476C54.8378 30.5082 54.502 31.1647 54.4451 31.8728C54.0736 36.5523 52.3666 41.0268 49.5269 44.7646C46.6872 48.5025 42.8341 51.3466 38.4255 52.959C34.017 54.5715 29.2382 54.8845 24.6569 53.8609C20.0757 52.8372 15.8846 50.52 12.5816 47.1845C9.27857 43.849 7.00249 39.6354 6.02375 35.0444C5.04502 30.4534 5.40479 25.6779 7.0603 21.2853C8.71582 16.8927 11.5975 13.0677 15.363 10.2647C19.1284 7.4617 23.6194 5.79855 28.3023 5.47285M27.8951 17.3443C28.0235 17.6718 28.0861 18.0215 28.0793 18.3732C28.0725 18.7249 27.9965 19.0719 27.8556 19.3942C27.7147 19.7166 27.5117 20.0081 27.2582 20.252C27.0047 20.4958 26.7056 20.6874 26.378 20.8157C24.8494 21.4137 23.494 22.3832 22.4344 23.6367C21.3748 24.8902 20.6443 26.3881 20.3091 27.9949C19.9739 29.6017 20.0445 31.2666 20.5146 32.8393C20.9847 34.4119 21.8394 35.8425 23.0013 37.0018C24.1633 38.161 25.5959 39.0123 27.1697 39.4787C28.7434 39.9451 30.4085 40.0118 32.0145 39.6728C33.6205 39.3339 35.1166 38.5999 36.3676 37.5373C37.6186 36.4748 38.585 35.1171 39.1794 33.5871C39.4484 32.9421 39.9587 32.4277 40.6016 32.1538C41.2445 31.8798 41.9691 31.868 42.6206 32.1208C43.2721 32.3735 43.799 32.8709 44.0889 33.5068C44.3788 34.1427 44.4087 34.8667 44.1723 35.5243C43.2568 37.8866 41.7667 39.9833 39.8369 41.6247C37.907 43.2661 35.5983 44.4004 33.1196 44.9248C30.641 45.4492 28.0707 45.3472 25.6414 44.6281C23.2122 43.909 21.0005 42.5955 19.2067 40.8064C17.413 39.0172 16.0936 36.8091 15.3682 34.3816C14.6428 31.9542 14.5341 29.3842 15.052 26.9042C15.57 24.4243 16.6982 22.1126 18.3346 20.1784C19.9709 18.2443 22.0638 16.7487 24.4237 15.8271C24.7513 15.6988 25.1009 15.6362 25.4526 15.643C25.8044 15.6498 26.1513 15.7258 26.4737 15.8666C26.796 16.0075 27.0875 16.2105 27.3314 16.4641C27.5753 16.7176 27.7668 17.0167 27.8951 17.3443Z" fill="#39FA08"/>
</g>
<defs>
<clipPath id="clip0_828_104268">
<rect width="60" height="60" fill="white"/>
</clipPath>
</defs>
</svg>
