<svg width="150" height="75" viewBox="0 0 150 75" fill="none" xmlns="http://www.w3.org/2000/svg">
<g filter="url(#filter0_dd_796_105920)">
<g clip-path="url(#clip0_796_105920)">
<path fill-rule="evenodd" clip-rule="evenodd" d="M57.2266 44.3494L58.458 41.4871C59.7881 42.482 61.5603 42.9992 63.3088 42.9992C64.5995 42.9992 65.4165 42.5018 65.4165 41.7477C65.3968 39.6395 57.6844 41.2897 57.6252 36.0034C57.6055 33.3187 59.9894 31.25 63.3681 31.25C65.3771 31.25 67.3821 31.7474 68.8149 32.8805L67.6624 35.802C66.352 34.965 64.7219 34.3689 63.1707 34.3689C62.1169 34.3689 61.4222 34.8663 61.4222 35.502C61.4419 37.5707 69.2135 36.4377 69.2925 41.4871C69.2925 44.231 66.9677 46.1616 63.6286 46.1616C61.1814 46.1576 58.9356 45.5812 57.2266 44.3494ZM104.515 40.4528C103.9 41.5266 102.747 42.261 101.413 42.261C99.4434 42.261 97.8567 40.6699 97.8567 38.7038C97.8567 36.7377 99.4473 35.1467 101.413 35.1467C102.743 35.1467 103.9 35.881 104.515 36.9548L107.914 35.0677C106.643 32.8015 104.196 31.25 101.413 31.25C97.2962 31.25 93.9571 34.59 93.9571 38.7077C93.9571 42.8255 97.2962 46.1655 101.413 46.1655C104.215 46.1655 106.643 44.6337 107.914 42.3478L104.515 40.4528ZM71.0015 25.0635H75.2563V45.8813H71.0015V25.0635ZM109.583 25.0635V45.8813H113.838V39.6355L118.886 45.8813H124.333L117.911 38.463L123.855 31.5421H118.645L113.834 37.2865V25.0635H109.583Z" fill="black"/>
<path d="M87.8978 40.4922C87.282 41.5069 86.0111 42.2609 84.5784 42.2609C82.6088 42.2609 81.0221 40.6699 81.0221 38.7038C81.0221 36.7377 82.6128 35.1466 84.5784 35.1466C86.0111 35.1466 87.282 35.9402 87.8978 36.9746V40.4922ZM87.8978 31.5461V33.2358C87.2031 32.0633 85.4743 31.246 83.6627 31.246C79.9249 31.246 76.9844 34.5466 76.9844 38.6841C76.9844 42.8216 79.9249 46.1616 83.6627 46.1616C85.4704 46.1616 87.1991 45.3483 87.8978 44.1718V45.8615H92.1526V31.5461H87.8978Z" fill="black"/>
<path fill-rule="evenodd" clip-rule="evenodd" d="M30.9272 40.4726C30.9272 41.9255 29.755 43.0981 28.3025 43.0981C26.85 43.0981 25.6777 41.9216 25.6777 40.4726C25.6777 39.0237 26.85 37.8472 28.3025 37.8472H30.9272V40.4726ZM32.2376 40.4726C32.2376 39.0198 33.4099 37.8472 34.8623 37.8472C36.3148 37.8472 37.4871 39.0198 37.4871 40.4726V47.0342C37.4871 48.4871 36.3148 49.6596 34.8623 49.6596C33.4099 49.6596 32.2376 48.4871 32.2376 47.0342V40.4726Z" fill="#E01E5A"/>
<path fill-rule="evenodd" clip-rule="evenodd" d="M34.8625 29.9354C33.4101 29.9354 32.2378 28.7628 32.2378 27.3099C32.2378 25.8571 33.4101 24.6845 34.8625 24.6845C36.315 24.6845 37.4873 25.8571 37.4873 27.3099V29.9354H34.8625ZM34.8625 31.2658C36.315 31.2658 37.4873 32.4384 37.4873 33.8913C37.4873 35.3441 36.315 36.5167 34.8625 36.5167H28.2829C26.8305 36.5167 25.6582 35.3402 25.6582 33.8913C25.6582 32.4424 26.8305 31.2658 28.2829 31.2658H34.8625Z" fill="#36C5F0"/>
<path fill-rule="evenodd" clip-rule="evenodd" d="M45.3761 33.8914C45.3761 32.4386 46.5484 31.266 48.0009 31.266C49.4534 31.266 50.6256 32.4386 50.6256 33.8914C50.6256 35.3443 49.4534 36.5169 48.0009 36.5169H45.3761V33.8914ZM44.0658 33.8914C44.0658 35.3443 42.8935 36.5169 41.441 36.5169C39.9887 36.5169 38.8164 35.3443 38.8164 33.8914V27.3101C38.8164 25.8572 39.9887 24.6847 41.441 24.6847C42.8935 24.6847 44.0658 25.8572 44.0658 27.3101V33.8914Z" fill="#2EB67D"/>
<path fill-rule="evenodd" clip-rule="evenodd" d="M41.441 44.4088C42.8935 44.4088 44.0658 45.5813 44.0658 47.0342C44.0658 48.4871 42.8935 49.6596 41.441 49.6596C39.9887 49.6596 38.8164 48.4871 38.8164 47.0342V44.4088H41.441ZM41.441 43.0981C39.9887 43.0981 38.8164 41.9255 38.8164 40.4726C38.8164 39.0198 39.9887 37.8472 41.441 37.8472H48.0206C49.4731 37.8472 50.6454 39.0198 50.6454 40.4726C50.6454 41.9255 49.4731 43.0981 48.0206 43.0981H41.441Z" fill="#ECB22E"/>
</g>
</g>
<defs>
<filter id="filter0_dd_796_105920" x="-5" y="-1" width="160" height="84.32" filterUnits="userSpaceOnUse" color-interpolation-filters="sRGB">
<feFlood flood-opacity="0" result="BackgroundImageFix"/>
<feColorMatrix in="SourceAlpha" type="matrix" values="0 0 0 0 0 0 0 0 0 0 0 0 0 0 0 0 0 0 127 0" result="hardAlpha"/>
<feMorphology radius="1" operator="erode" in="SourceAlpha" result="effect1_dropShadow_796_105920"/>
<feOffset dy="4"/>
<feGaussianBlur stdDeviation="3"/>
<feComposite in2="hardAlpha" operator="out"/>
<feColorMatrix type="matrix" values="0 0 0 0 0 0 0 0 0 0 0 0 0 0 0 0 0 0 0.1 0"/>
<feBlend mode="normal" in2="BackgroundImageFix" result="effect1_dropShadow_796_105920"/>
<feColorMatrix in="SourceAlpha" type="matrix" values="0 0 0 0 0 0 0 0 0 0 0 0 0 0 0 0 0 0 127 0" result="hardAlpha"/>
<feMorphology radius="2" operator="erode" in="SourceAlpha" result="effect2_dropShadow_796_105920"/>
<feOffset dy="2"/>
<feGaussianBlur stdDeviation="2"/>
<feComposite in2="hardAlpha" operator="out"/>
<feColorMatrix type="matrix" values="0 0 0 0 0 0 0 0 0 0 0 0 0 0 0 0 0 0 0.1 0"/>
<feBlend mode="normal" in2="effect1_dropShadow_796_105920" result="effect2_dropShadow_796_105920"/>
<feBlend mode="normal" in="SourceGraphic" in2="effect2_dropShadow_796_105920" result="shape"/>
</filter>
<clipPath id="clip0_796_105920">
<rect width="99.99" height="26.32" fill="white" transform="translate(25 24)"/>
</clipPath>
</defs>
</svg>
